<svg width="163" height="10" viewBox="0 0 9022 553" fill="none" xmlns="http://www.w3.org/2000/svg">
<path d="M680.966 271.2C680.966 426.4 544.166 544 358.566 544H0.165626V210.4H166.566V406.4H358.566C450.566 406.4 516.966 355.2 516.966 278.4C516.966 203.2 448.166 148 358.566 148H0.165626L105.766 8.79998H358.566C545.766 8.79998 680.966 116.8 680.966 271.2ZM1425.81 440L1524.21 544H1302.61L1183.41 402.4H929.009V544H763.409V270.4H1229.01C1280.21 270.4 1320.21 247.2 1320.21 210.4C1320.21 168.8 1285.81 148 1229.01 148H763.409L871.409 8.79998H1215.41C1337.01 8.79998 1490.61 47.2 1490.61 200C1490.61 283.2 1438.61 352 1350.61 369.6C1369.01 383.2 1389.01 402.4 1425.81 440ZM1750.16 406.4H2205.36L2098.96 544H1583.76V8.79998H2203.76L2096.56 148H1750.16V212H2174.16L2078.96 333.6H1750.16V406.4ZM2820.28 8.79998H3028.28L2710.68 367.2V544H2544.28V366.4L2217.88 8.79998H2430.68L2558.68 157.6C2575.48 176.8 2620.28 225.6 2631.48 241.6C2641.88 226.4 2660.28 203.2 2698.68 156.8L2820.28 8.79998ZM3250.94 406.4H3706.14L3599.74 544H3084.54V8.79998H3704.54L3597.34 148H3250.94V212H3674.94L3579.74 333.6H3250.94V406.4ZM4423.47 440L4521.87 544H4300.27L4181.07 402.4H3926.67V544H3761.07V270.4H4226.67C4277.87 270.4 4317.87 247.2 4317.87 210.4C4317.87 168.8 4283.47 148 4226.67 148H3761.07L3869.07 8.79998H4213.07C4334.67 8.79998 4488.27 47.2 4488.27 200C4488.27 283.2 4436.27 352 4348.27 369.6C4366.67 383.2 4386.67 402.4 4423.47 440ZM5127.02 8.79998H5341.42L5172.62 163.2C5098.22 230.4 5073.42 252 5053.42 267.2C5072.62 280 5096.62 302.4 5183.02 383.2L5354.22 544H5120.62L4938.22 367.2L4750.22 544H4544.62L4719.02 383.2C4800.62 308 4823.82 288.8 4843.82 273.6C4823.82 259.2 4803.02 240.8 4719.02 162.4L4555.02 8.79998H4784.62L4955.02 175.2L5127.02 8.79998ZM5924.5 222.4H6215.7C6346.1 222.4 6416.5 271.2 6416.5 368.8C6416.5 478.4 6350.1 544 6186.9 544H5688.5L5794.9 406.4H6199.7C6238.9 406.4 6256.5 395.2 6256.5 367.2C6256.5 340 6238.9 328.8 6199.7 328.8H5908.5C5770.9 328.8 5707.7 267.2 5707.7 175.2C5707.7 74.4 5774.9 8.79998 5937.3 8.79998H6402.1L6295.7 148H5924.5C5886.1 148 5867.7 157.6 5867.7 184.8C5867.7 212 5886.1 222.4 5924.5 222.4ZM7112.41 496L7026.81 344.8C6980.41 262.4 6958.81 222.4 6940.41 184C6923.61 222.4 6902.01 261.6 6855.61 344L6770.01 496C6750.81 530.4 6722.01 552.8 6678.81 552.8C6637.21 552.8 6600.41 528.8 6586.01 479.2L6450.01 8.79998H6615.61L6666.01 195.2C6682.81 255.2 6694.01 299.2 6702.01 342.4C6719.61 304.8 6740.41 264 6777.21 194.4L6849.21 60C6877.21 7.2 6904.41 -5.72205e-06 6943.61 -5.72205e-06C6983.61 -5.72205e-06 7011.61 7.2 7039.61 60L7110.81 195.2C7150.81 268.8 7169.21 306.4 7186.01 342.4C7194.81 300 7206.81 254.4 7222.81 195.2L7273.21 8.79998H7434.81L7296.41 479.2C7282.01 528.8 7245.21 552.8 7203.61 552.8C7161.21 552.8 7132.41 531.2 7112.41 496ZM8256 544H7633.6L7733.6 406.4H7868C7900 406.4 7937.6 406.4 7963.2 408C7948.8 388.8 7926.4 356 7908.8 330.4L7812.8 188.8L7561.6 544H7365.6L7708.8 60C7731.2 28.8 7764 -5.72205e-06 7816 -5.72205e-06C7865.6 -5.72205e-06 7898.4 26.4 7921.6 60L8256 544ZM9021.41 209.6C9021.41 328 8924.61 407.2 8758.21 407.2H8478.21V544H8313.41V270.4H8774.21C8825.41 270.4 8855.01 245.6 8855.01 208.8C8855.01 171.2 8825.41 148 8774.21 148H8313.41L8423.01 8.79998H8759.01C8924.61 8.79998 9021.41 90.4 9021.41 209.6Z" fill="black"/>
</svg>
